<svg xmlns="http://www.w3.org/2000/svg" viewBox="0 0 1200 800" preserveAspectRatio="xMidYMid slice">
  <defs>
    <linearGradient id="g" x1="0" y1="0" x2="0" y2="1">
      <stop offset="0" stop-color="#06121f"/>
      <stop offset=".5" stop-color="#102b4a"/>
      <stop offset="1" stop-color="#1a4a6e"/>
    </linearGradient>
  </defs>
  <rect width="1200" height="800" fill="url(#g)"/>
  <g opacity=".55">
    <rect x="0" y="430" width="1200" height="2" fill="#7ec0e8"/>
    <rect x="0" y="470" width="1200" height="1" fill="#7ec0e8"/>
    <rect x="0" y="520" width="1200" height="1.5" fill="#7ec0e8"/>
    <rect x="0" y="580" width="1200" height="1" fill="#7ec0e8"/>
  </g>
  <g fill="#ffd98a" opacity=".9">
    <circle cx="240" cy="380" r="3"/>
    <circle cx="380" cy="370" r="2.5"/>
    <circle cx="540" cy="375" r="3"/>
    <circle cx="700" cy="365" r="2.5"/>
    <circle cx="860" cy="375" r="3"/>
    <circle cx="980" cy="370" r="2.5"/>
  </g>
  <g stroke="#ffd98a" stroke-width="1" opacity=".4">
    <line x1="240" y1="385" x2="240" y2="500"/>
    <line x1="380" y1="375" x2="380" y2="500"/>
    <line x1="540" y1="380" x2="540" y2="500"/>
    <line x1="700" y1="370" x2="700" y2="500"/>
    <line x1="860" y1="380" x2="860" y2="500"/>
    <line x1="980" y1="375" x2="980" y2="500"/>
  </g>
</svg>
